<svg width="150" height="150" version="1.1" xmlns="http://www.w3.org/2000/svg" xmlns:xlink="http://www.w3.org/1999/xlink"><defs><circle id="a" cx="75" cy="75" r="75"/></defs><g stroke="none" stroke-width="1" fill="none" fill-rule="evenodd"><g><mask id="b" fill="#fff"><use xlink:href="#a"/></mask><use fill="#D8D8D8" xlink:href="#a"/><g mask="url(#b)"><g><g stroke-width="1" fill="none" fill-rule="evenodd"><path d="M-50.4 161h243.7c6.9 0 12.5-6.907 12.5-15.417V-8.583c0-8.51-5.6-15.417-12.5-15.417H-50.4c-6.9 0-12.5 6.907-12.5 15.417V145.46c0 8.633 5.6 15.54 12.5 15.54z" fill="#FFC715" fill-rule="nonzero"/></g><path d="M24 22.3h105.9c1.8 0 3.3 1.5 3.3 3.3v167.6H20.7V25.6c0-1.8 1.5-3.3 3.3-3.3z" fill="#FFF" fill-rule="nonzero" opacity=".9"/><path fill="#302E2C" fill-rule="nonzero" d="M29 30.9h95.7v162.3H29z"/><g stroke-width="1" fill="none" fill-rule="evenodd"><path fill="#B26938" fill-rule="nonzero" d="M-63.4 30.9H29v162.3h-92.4z"/><path stroke="#9B582A" stroke-width="3.206" d="M-49.5 43.7h65.6v71.8h-65.6z"/><path stroke="#9B582A" stroke-width="3.32" d="M-49.5 129.8h65.6v50.5h-65.6z"/><path d="M26.5 73.5V54.1c0-.7.5-1.1 1.1-1.1h3.1c.7 0 1.1.5 1.1 1.1v19.4c0 .7-.5 1.1-1.1 1.1h-3.1c-.7 0-1.1-.6-1.1-1.1zm0 77.5v-19.4c0-.7.5-1.1 1.1-1.1h3.1c.7 0 1.1.5 1.1 1.1V151c0 .7-.5 1.1-1.1 1.1h-3.1c-.7 0-1.1-.5-1.1-1.1z" fill="#969696" fill-rule="nonzero"/><path d="M12.4 111.3V47.8m0 127.8v-41.3" stroke="#C4753F" stroke-width="4.38" stroke-linecap="round" stroke-linejoin="round"/></g><path fill="#969696" fill-rule="nonzero" d="M29 39.3h95.7v5.3H29z"/><g stroke-width="1" fill="none" fill-rule="nonzero" transform="translate(25 40)"><path d="M39 63.8c-2.6 1.8-6.3 1.2-8.1-1.4L2.4 21.5c-1.8-2.6-1.2-6.3 1.4-8.1 2.6-1.8 6.3-1.2 8.1 1.4l28.5 40.8c1.9 2.7 1.2 6.3-1.4 8.2z" fill="#93503B"/><g fill="#000"><path d="M67 52.9c-1.1 0-2-.9-2-2V17.3C65 11.6 60.4 7 54.7 7 49 7 44.4 11.6 44.4 17.3v18c0 1.1-.9 2-2 2s-2-.9-2-2v-18c0-7.8 6.4-14.2 14.2-14.2C62.4 3.1 69 9.4 69 17.3v33.6c0 1.1-.9 2-2 2z"/><path d="M54.8 4.7h1c6 0 10.8 4.8 10.8 10.8v7.4c0 6-4.8 10.8-10.8 10.8h-1c-6 0-10.8-4.8-10.8-10.8v-7.4c.1-6 4.9-10.8 10.8-10.8z"/></g><path d="M46.9 47.1C55.8 47.1 63 39.8 63 31v-6.2c0-8.9-7.3-16.1-16.1-16.1-8.9 0-16.1 7.3-16.1 16.1V31c0 8.8 7.2 16.1 16.1 16.1z" fill="#000"/><path d="M62.9 63.8c2.6 1.8 6.3 1.2 8.1-1.4l28.5-40.8c1.8-2.6 1.2-6.3-1.4-8.1-2.6-1.8-6.3-1.2-8.1 1.4L61.5 55.7c-1.8 2.6-1.2 6.2 1.4 8.1z" fill="#93503B"/><path d="M43.7 50.9h14.5c4.1 0 7.5 3.3 7.5 7.5v6.7c0 4.1-3.3 7.5-7.5 7.5H43.7c-4.1 0-7.5-3.3-7.5-7.5v-6.7c0-4.2 3.3-7.5 7.5-7.5z" fill="#93503B"/><path d="M37.7 92.2v55.4H49V103c0-1.1.9-1.9 1.9-1.9 1.1 0 1.9.9 1.9 1.9v44.6h11.3V92.2H37.7z" fill="#843C2D"/><path d="M40.6 80c.2-.2.4-.5.6-.7.1-.1.1-.2.1-.3l.1-.1h3.9c.8 0 1.4.6 1.4 1.3v45.3c0 .7-.7 1.3-1.4 1.3h-7.8c-.9 0-1.6-.6-1.6-1.4l4.9-45c0-.2-.1-.4-.2-.4z" fill="#00A2E2"/><path d="M38.3 78.9c0-.1-.1-.2-.1-.2l.6-1.2h1.9c.9 0 1.6.6 1.6 1.4l-4.9 45c0 .8-.7 1.4-1.6 1.4H28c-.9 0-1.6-.6-1.6-1.4l11.9-45z" fill="#1CB0F6"/><path d="M56.7 78.8h4.2c.1.4.3.7.5 1.1-.1.1-.2.2-.2.3l4.9 45c0 .8-.7 1.4-1.6 1.4h-7.8c-.8 0-1.4-.6-1.4-1.3V79.9c-.1-.5.5-1.1 1.4-1.1z" fill="#00A2E2"/><path d="M61.2 77.5h2.5v.1c0 .1.1.4.1.3.1.2.1.5.2.6-.2.2-.4.3-.4.4L75.5 124c0 .8-.7 1.4-1.6 1.4h-7.7c-.9 0-1.6-.6-1.6-1.4l-4.9-45c-.1-.9.6-1.5 1.5-1.5zm-13.5 51.4h7.1c1.1 0 1.9-.8 1.9-1.7V82.7c0-1-.9-1.7-1.9-1.7h-7c-1.1 0-1.9.8-1.9 1.7v44.5c-.1 1 .8 1.7 1.8 1.7z" fill="#1CB0F6"/><circle fill="#1CB0F6" cx="56.5" cy="62.8" r="5.8"/><circle fill="#1CB0F6" cx="45.4" cy="62.8" r="5.8"/><path d="M64.5 49.4h-3c-.6 0-1.1.5-1.1 1.1v17.7h5.1V50.4c.1-.6-.4-1-1-1z" fill="#FF8500"/><path d="M40.2 49.4h-3c-.6 0-1.1.5-1.1 1.1v17.7h5.1V50.4c.1-.6-.4-1-1-1z" fill="#1CB0F6"/><path d="M39.2 76.5h23.2c1.7 0 3.1-1.4 3.1-3.1V67c0-1.7-1.4-3.1-3.1-3.1H39.2c-1.7 0-3.1 1.4-3.1 3.1v6.5c.1 1.7 1.5 3 3.1 3z" fill="#1CB0F6"/><path d="M64.5 76.2H37.4c-.4 0-.6.3-.6.6v5c0 .4.3.6.6.6h27.1c.4 0 .6-.3.6-.6v-5c0-.3-.3-.6-.6-.6z" fill="#0092BF"/><path d="M50.9 40.4c-2.8 0-5.1 2.3-5.1 5v6c0 2.8 2.3 5 5.1 5s5.1-2.3 5.1-5v-6c.1-2.8-2.2-5-5.1-5z" fill="#843C2D"/><circle fill="#DDD" cx="66.3" cy="33.8" r="1.2"/><circle fill="#843C2D" cx="65.9" cy="31.5" r="3.5"/><circle fill="#843C2D" cx="36" cy="31.5" r="3.5"/><path d="M66.9 37.8c-.5 0-1-.4-1-1v-2.7c0-.5.4-1 1-1 .5 0 1 .4 1 1v2.7c0 .6-.5 1-1 1zm-31.9 0c-.5 0-1-.4-1-1v-2.7c0-.5.4-1 1-1 .5 0 1 .4 1 1v2.7c0 .6-.4 1-1 1z" fill="#1CB0F6"/><path d="M64 68.5c-2.3 0-4.2-1.9-4.2-4.2V43.2c0-2.3 1.9-4.2 4.2-4.2 2.3 0 4.2 1.9 4.2 4.2v21.2c0 2.2-1.9 4.1-4.2 4.1z" fill="#000"/><path d="M59.3 62.6c-1.8 0-3.2-1.4-3.2-3.2v-13c0-1.8 1.4-3.2 3.2-3.2 1.8 0 3.2 1.4 3.2 3.2v13c0 1.8-1.4 3.2-3.2 3.2z" fill="#000"/><g><path d="M50.9 49.6c-8.3 0-15-6.7-15-15v-9.3c0-8.3 6.7-15 15-15s15 6.7 15 15v9.3c0 8.3-6.7 15-15 15z" fill="#93503B"/><path d="M56.8 25.4c.1 0 .2 0 .3.1.8.4 2.4.4 3.3 0 .3-.1.6 0 .8.3.1.3 0 .6-.3.8-1.2.6-3.1.6-4.3 0-.3-.1-.4-.5-.3-.8.1-.3.3-.4.5-.4zm-15.5 0c.1 0 .2 0 .3.1.8.4 2.4.4 3.3 0 .3-.1.6 0 .8.3.1.3 0 .6-.3.8-1.2.6-3.1.6-4.3 0-.3-.1-.4-.5-.3-.8.1-.3.3-.4.5-.4z" stroke="#612C23" stroke-width=".267" fill="#612C23"/><g><g fill="#702525"><path d="M55.5 37.5v2.1c0 2.5-2 4.5-4.5 4.5s-4.5-2-4.5-4.5v.5-2.6c0-2.5 2-4.5 4.5-4.5s4.5 2 4.5 4.5z"/></g><g fill="#A03839"><path d="M54.84 41.959A4.482 4.482 0 0 1 51 44.1a4.481 4.481 0 0 1-3.93-2.294A4.793 4.793 0 0 1 50.9 39.9c1.632 0 3.073.814 3.94 2.059z"/></g><g fill="#FFF"><path d="M54.883 41.888A4.482 4.482 0 0 1 51 44.1a4.481 4.481 0 0 1-3.909-2.257A1.8 1.8 0 0 1 48 41.6h5.9c.364 0 .7.106.983.288z"/></g><g fill="#FFF"><path d="M48.056 34.087A4.489 4.489 0 0 1 51 33c1.13 0 2.159.41 2.946 1.088a1.88 1.88 0 0 1-1.046.312h-3.8c-.376 0-.739-.113-1.044-.313z"/></g></g><path d="M40.9 19.3h4.7c.7 0 1.3.6 1.3 1.3 0 .7-.6 1.3-1.3 1.3h-4.7c-.7 0-1.3-.6-1.3-1.3 0-.7.6-1.3 1.3-1.3zm15.4 0H61c.7 0 1.3.6 1.3 1.3 0 .7-.6 1.3-1.3 1.3h-4.7c-.7 0-1.3-.6-1.3-1.3 0-.7.6-1.3 1.3-1.3z" fill="#1C1C1C"/><path d="M53 31.1h-4c-.5 0-.9-.4-.9-.9v-3.8c0-.5.4-.9.9-.9h4c.5 0 .9.4.9.9v3.8c-.1.5-.5.9-.9.9z" fill="#843C2D"/></g><g fill="#93503B"><path d="M94.3 15.3h-1.1c-.9 0-1.6-.7-1.6-1.6V3c0-1.2 1-2.2 2.2-2.2C95 .8 96 1.8 96 3v10.8c-.1.8-.8 1.5-1.7 1.5zm-5.5 0h-1.1c-.9 0-1.6-.7-1.6-1.6V3c0-1.2 1-2.2 2.2-2.2 1.2 0 2.2 1 2.2 2.2v10.8c-.1.8-.8 1.5-1.7 1.5zm10.9 0h-1.1c-.9 0-1.6-.7-1.6-1.6V3c0-1.2 1-2.2 2.2-2.2 1.2 0 2.2 1 2.2 2.2v10.8c-.1.8-.8 1.5-1.7 1.5z"/></g><path d="M90.4 17.2l-4.8-3.9-.2-.2c-.9-.9-2.3-.9-3.2-.1-.6.5-.9 1.3-.8 2 .1.6.4 1.2.9 1.6l4.8 3.9.2.2c.9.9 2.3.9 3.2.1.6-.5.9-1.3.8-2-.1-.6-.5-1.2-.9-1.6z" fill="#93503B"/><path d="M101.3 9.6v6.9c0 4.2-3.4 7.6-7.6 7.6-4.2 0-7.6-3.4-7.6-7.6V9.6" fill="#93503B"/><g fill="#93503B"><path d="M7.7 15.3h1.1c.9 0 1.6-.7 1.6-1.6V3c0-1.2-1-2.2-2.2-2.2C7 .8 6 1.8 6 3v10.8c.1.8.9 1.5 1.7 1.5zm5.5 0h1.1c.9 0 1.6-.7 1.6-1.6V3c0-1.2-1-2.2-2.2-2.2-1.2 0-2.2 1-2.2 2.2v10.8c.1.8.8 1.5 1.7 1.5zm-10.9 0h1.1c.9 0 1.6-.7 1.6-1.6V3C5 1.8 4 .8 2.8.8 1.6.8.6 1.8.6 3v10.8c.1.8.8 1.5 1.7 1.5z"/><path d="M11.7 17.2l4.8-3.9.2-.2c.9-.9 2.3-.9 3.2-.1.6.5.9 1.3.8 2-.1.6-.4 1.2-.9 1.6L15 20.5l-.2.2c-.9.9-2.3.9-3.2.1-.6-.5-.9-1.3-.8-2 0-.6.4-1.2.9-1.6z"/><path d="M.7 9.6v6.9c0 4.2 3.4 7.6 7.6 7.6 4.2 0 7.6-3.4 7.6-7.6V9.6"/></g></g></g></g></g></g></svg>